<mxfile host="65bd71144e">
    <diagram id="98ILmF06nyfyehlRfnuo" name="Seite-1">
        <mxGraphModel dx="1086" dy="674" grid="1" gridSize="10" guides="1" tooltips="1" connect="1" arrows="1" fold="1" page="1" pageScale="1" pageWidth="827" pageHeight="1169" math="0" shadow="0">
            <root>
                <mxCell id="0"/>
                <mxCell id="1" parent="0"/>
                <mxCell id="2" value="Stufe 1" style="swimlane;fontStyle=1;align=center;verticalAlign=middle;childLayout=stackLayout;horizontal=1;startSize=30;horizontalStack=0;resizeParent=0;resizeLast=1;container=0;fontColor=#000000;collapsible=0;rounded=1;arcSize=30;strokeColor=#ff0000;fillColor=#ffffc0;swimlaneFillColor=#ffffc0;dropTarget=0;" vertex="1" parent="1">
                    <mxGeometry x="320" y="40" width="160" height="60" as="geometry"/>
                </mxCell>
                <mxCell id="3" value="do / langsame drehen" style="text;html=1;strokeColor=none;fillColor=none;align=center;verticalAlign=middle;spacingLeft=4;spacingRight=4;whiteSpace=wrap;overflow=hidden;rotatable=0;fontColor=#000000;" vertex="1" parent="2">
                    <mxGeometry y="30" width="160" height="30" as="geometry"/>
                </mxCell>
                <mxCell id="5" value="Composite State" style="swimlane;fontStyle=1;align=center;verticalAlign=middle;childLayout=stackLayout;horizontal=1;startSize=30;horizontalStack=0;resizeParent=0;resizeLast=1;container=0;fontColor=#000000;collapsible=0;rounded=1;arcSize=30;strokeColor=#ff0000;fillColor=#ffffc0;swimlaneFillColor=#ffffc0;dropTarget=0;" vertex="1" parent="1">
                    <mxGeometry x="320" y="180" width="160" height="60" as="geometry"/>
                </mxCell>
                <mxCell id="6" value="Subtitle" style="text;html=1;strokeColor=none;fillColor=none;align=center;verticalAlign=middle;spacingLeft=4;spacingRight=4;whiteSpace=wrap;overflow=hidden;rotatable=0;fontColor=#000000;" vertex="1" parent="5">
                    <mxGeometry y="30" width="160" height="30" as="geometry"/>
                </mxCell>
                <mxCell id="7" value="" style="edgeStyle=orthogonalEdgeStyle;html=1;verticalAlign=bottom;endArrow=open;endSize=8;strokeColor=#ff0000;" edge="1" source="5" parent="1">
                    <mxGeometry relative="1" as="geometry">
                        <mxPoint x="400" y="300" as="targetPoint"/>
                    </mxGeometry>
                </mxCell>
                <mxCell id="9" value="" style="ellipse;html=1;shape=startState;fillColor=#000000;strokeColor=#ff0000;" vertex="1" parent="1">
                    <mxGeometry x="50" y="55" width="30" height="30" as="geometry"/>
                </mxCell>
                <mxCell id="11" value="" style="ellipse;html=1;shape=endState;fillColor=#000000;strokeColor=#ff0000;" vertex="1" parent="1">
                    <mxGeometry x="700" y="55" width="30" height="30" as="geometry"/>
                </mxCell>
                <mxCell id="12" value="" style="endArrow=open;endFill=1;endSize=12;html=1;entryX=0;entryY=0.5;entryDx=0;entryDy=0;exitX=1;exitY=0.5;exitDx=0;exitDy=0;" edge="1" parent="1" source="9" target="2">
                    <mxGeometry width="160" relative="1" as="geometry">
                        <mxPoint x="70" y="64.5" as="sourcePoint"/>
                        <mxPoint x="230" y="64.5" as="targetPoint"/>
                        <Array as="points"/>
                    </mxGeometry>
                </mxCell>
                <mxCell id="13" value="trigger[guard]/activity" style="text;html=1;align=center;verticalAlign=middle;resizable=0;points=[];autosize=1;strokeColor=none;fillColor=none;" vertex="1" parent="1">
                    <mxGeometry x="140" y="40" width="130" height="30" as="geometry"/>
                </mxCell>
                <mxCell id="14" value="" style="endArrow=open;endFill=1;endSize=12;html=1;entryX=0;entryY=0.5;entryDx=0;entryDy=0;exitX=1;exitY=0.5;exitDx=0;exitDy=0;" edge="1" parent="1">
                    <mxGeometry width="160" relative="1" as="geometry">
                        <mxPoint x="460" y="70" as="sourcePoint"/>
                        <mxPoint x="700" y="70" as="targetPoint"/>
                        <Array as="points"/>
                    </mxGeometry>
                </mxCell>
                <mxCell id="15" value="stufe1[schalter1]" style="text;html=1;align=center;verticalAlign=middle;resizable=0;points=[];autosize=1;strokeColor=none;fillColor=none;" vertex="1" parent="1">
                    <mxGeometry x="440" y="130" width="110" height="30" as="geometry"/>
                </mxCell>
                <mxCell id="18" value="" style="endArrow=open;endFill=1;endSize=12;html=1;entryX=0.694;entryY=0.017;entryDx=0;entryDy=0;exitX=0.706;exitY=1.033;exitDx=0;exitDy=0;entryPerimeter=0;exitPerimeter=0;" edge="1" parent="1" source="3" target="5">
                    <mxGeometry width="160" relative="1" as="geometry">
                        <mxPoint x="390" y="100" as="sourcePoint"/>
                        <mxPoint x="630" y="100" as="targetPoint"/>
                        <Array as="points"/>
                    </mxGeometry>
                </mxCell>
                <mxCell id="19" value="" style="endArrow=open;endFill=1;endSize=12;html=1;entryX=0.144;entryY=1.033;entryDx=0;entryDy=0;exitX=0.15;exitY=-0.067;exitDx=0;exitDy=0;entryPerimeter=0;exitPerimeter=0;" edge="1" parent="1" source="5" target="3">
                    <mxGeometry width="160" relative="1" as="geometry">
                        <mxPoint x="442.96000000000004" y="110.99000000000001" as="sourcePoint"/>
                        <mxPoint x="441.03999999999996" y="191.01999999999998" as="targetPoint"/>
                        <Array as="points"/>
                    </mxGeometry>
                </mxCell>
                <mxCell id="20" value="stufe2()[schalter betÃ¤tigt]" style="text;html=1;align=center;verticalAlign=middle;resizable=0;points=[];autosize=1;strokeColor=none;fillColor=none;" vertex="1" parent="1">
                    <mxGeometry x="190" y="130" width="160" height="30" as="geometry"/>
                </mxCell>
            </root>
        </mxGraphModel>
    </diagram>
</mxfile>